<svg width="205" height="56" viewBox="0 0 205 56" fill="none" xmlns="http://www.w3.org/2000/svg">
<path d="M22.4428 13.1005L27.0679 23.9522L33.2346 10H40.2938L45 46H35.9122L34.046 31.2727L27.0679 46L20.6577 31.2727L22.4428 13.1005Z" fill="#ED1C24"/>
<path d="M11.7325 10L8 46H16.6009L20.3334 10H11.7325Z" fill="#ED1C24"/>
<path d="M54.1378 13.9091H57.5511L61.1562 22.7045H61.3097L64.9148 13.9091H68.3281V27H65.6435V18.4794H65.5348L62.147 26.9361H60.3189L56.9311 18.4474H56.8224V27H54.1378V13.9091ZM75.0318 27.1918C74.0218 27.1918 73.1525 26.9872 72.4238 26.5781C71.6994 26.1648 71.1412 25.581 70.7491 24.8267C70.3571 24.0682 70.161 23.1712 70.161 22.1357C70.161 21.1257 70.3571 20.2393 70.7491 19.4766C71.1412 18.7138 71.693 18.1193 72.4047 17.6932C73.1206 17.267 73.96 17.054 74.9231 17.054C75.5708 17.054 76.1738 17.1584 76.7321 17.3672C77.2946 17.5717 77.7846 17.8807 78.2022 18.294C78.6241 18.7074 78.9522 19.2273 79.1866 19.8537C79.421 20.4759 79.5382 21.2045 79.5382 22.0398V22.7876H71.2477V21.1001H76.975C76.975 20.7081 76.8897 20.3608 76.7193 20.0582C76.5488 19.7557 76.3123 19.5192 76.0098 19.3487C75.7115 19.174 75.3642 19.0866 74.9679 19.0866C74.5545 19.0866 74.188 19.1825 73.8684 19.3743C73.5531 19.5618 73.3059 19.8153 73.127 20.1349C72.948 20.4503 72.8564 20.8018 72.8521 21.1896V22.794C72.8521 23.2798 72.9416 23.6996 73.1206 24.0533C73.3038 24.407 73.5616 24.6797 73.894 24.8714C74.2264 25.0632 74.6206 25.1591 75.0765 25.1591C75.3791 25.1591 75.6561 25.1165 75.9075 25.0312C76.1589 24.946 76.3741 24.8182 76.5531 24.6477C76.7321 24.4773 76.8684 24.2685 76.9622 24.0213L79.4806 24.1875C79.3528 24.7926 79.0907 25.321 78.6944 25.7727C78.3024 26.2202 77.7953 26.5696 77.1731 26.821C76.5552 27.0682 75.8414 27.1918 75.0318 27.1918ZM86.5375 17.1818V19.2273H80.6248V17.1818H86.5375ZM81.9672 14.8295H84.6902V23.983C84.6902 24.2344 84.7285 24.4304 84.8052 24.571C84.8819 24.7074 84.9885 24.8033 85.1248 24.8587C85.2654 24.9141 85.4274 24.9418 85.6106 24.9418C85.7385 24.9418 85.8663 24.9311 85.9941 24.9098C86.122 24.8842 86.22 24.8651 86.2882 24.8523L86.7164 26.8786C86.5801 26.9212 86.3883 26.9702 86.1412 27.0256C85.894 27.0852 85.5936 27.1214 85.2399 27.1342C84.5836 27.1598 84.0083 27.0724 83.514 26.8722C83.024 26.6719 82.6426 26.3608 82.3699 25.9389C82.0971 25.517 81.9629 24.9844 81.9672 24.3409V14.8295ZM88.3113 27V17.1818H90.9512V18.8949H91.0534C91.2324 18.2855 91.5328 17.8253 91.9547 17.5142C92.3766 17.1989 92.8624 17.0412 93.4121 17.0412C93.5485 17.0412 93.6955 17.0497 93.8532 17.0668C94.0108 17.0838 94.1493 17.1072 94.2686 17.1371V19.5533C94.1408 19.5149 93.964 19.4808 93.7381 19.451C93.5123 19.4212 93.3056 19.4062 93.1181 19.4062C92.7175 19.4062 92.3596 19.4936 92.0442 19.6683C91.7331 19.8388 91.486 20.0774 91.3027 20.3842C91.1238 20.6911 91.0343 21.0447 91.0343 21.4453V27H88.3113ZM99.6555 27.1918C98.6626 27.1918 97.804 26.9808 97.0795 26.5589C96.3594 26.1328 95.8033 25.5405 95.4112 24.782C95.0192 24.0192 94.8232 23.1349 94.8232 22.1293C94.8232 21.1151 95.0192 20.2287 95.4112 19.4702C95.8033 18.7074 96.3594 18.1151 97.0795 17.6932C97.804 17.267 98.6626 17.054 99.6555 17.054C100.648 17.054 101.505 17.267 102.225 17.6932C102.95 18.1151 103.508 18.7074 103.9 19.4702C104.292 20.2287 104.488 21.1151 104.488 22.1293C104.488 23.1349 104.292 24.0192 103.9 24.782C103.508 25.5405 102.95 26.1328 102.225 26.5589C101.505 26.9808 100.648 27.1918 99.6555 27.1918ZM99.6683 25.0824C100.12 25.0824 100.497 24.9545 100.8 24.6989C101.102 24.4389 101.33 24.0852 101.484 23.6378C101.641 23.1903 101.72 22.6811 101.72 22.1101C101.72 21.5391 101.641 21.0298 101.484 20.5824C101.33 20.1349 101.102 19.7812 100.8 19.5213C100.497 19.2614 100.12 19.1314 99.6683 19.1314C99.2124 19.1314 98.8288 19.2614 98.5178 19.5213C98.2109 19.7812 97.9787 20.1349 97.821 20.5824C97.6676 21.0298 97.5909 21.5391 97.5909 22.1101C97.5909 22.6811 97.6676 23.1903 97.821 23.6378C97.9787 24.0852 98.2109 24.4389 98.5178 24.6989C98.8288 24.9545 99.2124 25.0824 99.6683 25.0824ZM110.476 27V13.9091H115.717C116.68 13.9091 117.483 14.0518 118.127 14.3374C118.77 14.6229 119.254 15.0192 119.578 15.5263C119.902 16.0291 120.064 16.6087 120.064 17.2649C120.064 17.7763 119.961 18.2259 119.757 18.6136C119.552 18.9972 119.271 19.3125 118.913 19.5597C118.559 19.8026 118.155 19.9751 117.699 20.0774V20.2053C118.197 20.2266 118.664 20.3672 119.099 20.6271C119.537 20.8871 119.893 21.2514 120.166 21.7202C120.439 22.1847 120.575 22.7386 120.575 23.3821C120.575 24.0767 120.403 24.6967 120.057 25.2422C119.716 25.7834 119.211 26.2116 118.542 26.527C117.873 26.8423 117.049 27 116.069 27H110.476ZM113.243 24.7372H115.5C116.271 24.7372 116.834 24.5902 117.187 24.2962C117.541 23.9979 117.718 23.6016 117.718 23.1072C117.718 22.745 117.631 22.4254 117.456 22.1484C117.281 21.8714 117.032 21.6541 116.708 21.4964C116.388 21.3388 116.007 21.2599 115.564 21.2599H113.243V24.7372ZM113.243 19.3871H115.295C115.675 19.3871 116.011 19.321 116.305 19.1889C116.604 19.0526 116.838 18.8608 117.008 18.6136C117.183 18.3665 117.27 18.0703 117.27 17.7251C117.27 17.2521 117.102 16.8707 116.765 16.581C116.433 16.2912 115.96 16.1463 115.346 16.1463H113.243V19.3871ZM125.125 27.1854C124.498 27.1854 123.94 27.0767 123.45 26.8594C122.96 26.6378 122.572 26.3118 122.287 25.8814C122.005 25.4467 121.865 24.9055 121.865 24.2578C121.865 23.7124 121.965 23.2543 122.165 22.8835C122.365 22.5128 122.638 22.2145 122.983 21.9886C123.328 21.7628 123.721 21.5923 124.159 21.4773C124.603 21.3622 125.067 21.2812 125.553 21.2344C126.124 21.1747 126.584 21.1193 126.934 21.0682C127.283 21.0128 127.537 20.9318 127.694 20.8253C127.852 20.7187 127.931 20.5611 127.931 20.3523V20.3139C127.931 19.9091 127.803 19.5959 127.547 19.3743C127.296 19.1527 126.938 19.0419 126.473 19.0419C125.983 19.0419 125.593 19.1506 125.304 19.3679C125.014 19.581 124.822 19.8494 124.728 20.1733L122.21 19.9688C122.338 19.3722 122.589 18.8565 122.964 18.4219C123.339 17.983 123.823 17.6463 124.415 17.4119C125.012 17.1733 125.702 17.054 126.486 17.054C127.032 17.054 127.554 17.1179 128.052 17.2457C128.555 17.3736 129 17.5717 129.388 17.8402C129.78 18.1087 130.089 18.4538 130.315 18.8757C130.541 19.2933 130.654 19.794 130.654 20.3778V27H128.071V25.6385H127.995C127.837 25.9453 127.626 26.2159 127.362 26.4503C127.098 26.6804 126.78 26.8615 126.409 26.9936C126.039 27.1214 125.61 27.1854 125.125 27.1854ZM125.904 25.3061C126.305 25.3061 126.659 25.2273 126.966 25.0696C127.272 24.9077 127.513 24.6903 127.688 24.4176C127.863 24.1449 127.95 23.8359 127.95 23.4908V22.4489C127.865 22.5043 127.748 22.5554 127.598 22.6023C127.453 22.6449 127.289 22.6854 127.106 22.7237C126.923 22.7578 126.74 22.7898 126.556 22.8196C126.373 22.8452 126.207 22.8686 126.058 22.8899C125.738 22.9368 125.459 23.0114 125.221 23.1136C124.982 23.2159 124.797 23.3544 124.664 23.5291C124.532 23.6996 124.466 23.9126 124.466 24.1683C124.466 24.5391 124.6 24.8224 124.869 25.0185C125.142 25.2102 125.487 25.3061 125.904 25.3061ZM135.489 21.3239V27H132.766V17.1818H135.362V18.9141H135.477C135.694 18.343 136.058 17.8913 136.57 17.5589C137.081 17.2223 137.701 17.054 138.43 17.054C139.112 17.054 139.706 17.2031 140.213 17.5014C140.72 17.7997 141.114 18.2259 141.396 18.7798C141.677 19.3295 141.817 19.9858 141.817 20.7486V27H139.094V21.2344C139.099 20.6335 138.945 20.1648 138.634 19.8281C138.323 19.4872 137.895 19.3168 137.349 19.3168C136.983 19.3168 136.659 19.3956 136.378 19.5533C136.101 19.7109 135.884 19.9411 135.726 20.2436C135.572 20.5419 135.494 20.902 135.489 21.3239ZM146.431 24.1747L146.437 20.9084H146.834L149.979 17.1818H153.104L148.879 22.1165H148.233L146.431 24.1747ZM143.964 27V13.9091H146.687V27H143.964ZM150.1 27L147.211 22.7237L149.026 20.7997L153.29 27H150.1Z" fill="#020617"/>
<path d="M54.116 36.6H59.204V37.344H54.944V40.38H58.724V41.052H54.944V44.256H59.204V45H54.116V36.6ZM61.5143 39V40.272C61.8623 39.432 62.5703 38.88 63.5543 38.88C64.7783 38.88 65.6183 39.684 65.6183 41.292V45H64.7903V41.484C64.7903 40.248 64.2143 39.624 63.2543 39.624C62.2463 39.624 61.5143 40.416 61.5143 41.568V45H60.6863V39H61.5143ZM70.3177 44.916C70.1857 44.964 69.9217 45.048 69.5497 45.048C68.4697 45.048 67.7377 44.46 67.7377 43.236V39.744H66.6337V39H67.7377V37.2H68.5777V39H70.4617V39.744H68.5777V43.068C68.5777 43.86 68.9857 44.292 69.6817 44.292C69.9937 44.292 70.2217 44.208 70.3177 44.16V44.916ZM74.035 45.12C72.235 45.12 71.083 43.716 71.083 42C71.083 40.284 72.235 38.88 74.035 38.88C75.799 38.88 76.879 40.236 76.771 42.18H71.911C71.983 43.428 72.715 44.424 74.035 44.424C75.031 44.424 75.715 43.86 75.967 43.032L76.747 43.116C76.459 44.268 75.475 45.12 74.035 45.12ZM71.947 41.532H75.955C75.847 40.428 75.223 39.576 74.011 39.576C72.799 39.576 72.091 40.416 71.947 41.532ZM78.2293 45V39H79.0573V40.356C79.3813 39.468 80.0653 38.88 81.0493 38.88C81.5053 38.88 81.8413 39.036 81.9133 39.084V39.912C81.7693 39.828 81.4213 39.672 80.9653 39.672C79.8733 39.672 79.0573 40.536 79.0573 41.928V45H78.2293ZM86.0108 45.12C84.8948 45.12 84.1868 44.46 83.8268 43.536V47.4H82.9988V39H83.8268V40.464C84.1868 39.54 84.8948 38.88 86.0108 38.88C87.6068 38.88 88.6148 40.248 88.6148 42C88.6148 43.752 87.6068 45.12 86.0108 45.12ZM83.8268 42C83.8268 43.296 84.5468 44.376 85.8068 44.376C87.0668 44.376 87.7868 43.296 87.7868 42C87.7868 40.704 87.0668 39.624 85.8068 39.624C84.5468 39.624 83.8268 40.704 83.8268 42ZM90.1003 45V39H90.9283V40.356C91.2523 39.468 91.9363 38.88 92.9203 38.88C93.3763 38.88 93.7123 39.036 93.7843 39.084V39.912C93.6403 39.828 93.2923 39.672 92.8363 39.672C91.7443 39.672 90.9283 40.536 90.9283 41.928V45H90.1003ZM94.8819 39H95.7099V45H94.8819V39ZM94.7259 36.816C94.7259 36.504 94.9779 36.252 95.2899 36.252C95.6019 36.252 95.8659 36.504 95.8659 36.816C95.8659 37.128 95.6019 37.38 95.2899 37.38C94.9779 37.38 94.7259 37.128 94.7259 36.816ZM99.5441 45.12C98.2121 45.12 97.3121 44.4 97.1801 43.176L97.9721 43.128C98.0681 44.064 98.7521 44.448 99.5201 44.448C100.276 44.448 100.948 44.076 100.948 43.356C100.948 42.708 100.384 42.48 99.7961 42.36L99.0401 42.216C98.0561 42.036 97.3001 41.556 97.3001 40.608C97.3001 39.54 98.3561 38.88 99.4601 38.88C100.6 38.88 101.572 39.504 101.716 40.716L100.96 40.764C100.852 39.96 100.204 39.552 99.4841 39.552C98.7641 39.552 98.0921 39.948 98.0921 40.596C98.0921 41.16 98.5841 41.376 99.2201 41.496L99.9761 41.64C100.948 41.82 101.788 42.3 101.788 43.344C101.788 44.424 100.816 45.12 99.5441 45.12ZM105.805 45.12C104.005 45.12 102.853 43.716 102.853 42C102.853 40.284 104.005 38.88 105.805 38.88C107.569 38.88 108.648 40.236 108.541 42.18H103.681C103.753 43.428 104.485 44.424 105.805 44.424C106.801 44.424 107.485 43.86 107.737 43.032L108.517 43.116C108.229 44.268 107.245 45.12 105.805 45.12ZM103.717 41.532H107.725C107.617 40.428 106.993 39.576 105.781 39.576C104.569 39.576 103.861 40.416 103.717 41.532Z" fill="#334155"/>
</svg>
